<?xml version="1.0" standalone="no"?>
<!DOCTYPE svg PUBLIC "-//W3C//DTD SVG 20010904//EN"
 "http://www.w3.org/TR/2001/REC-SVG-20010904/DTD/svg10.dtd">
<svg version="1.0" xmlns="http://www.w3.org/2000/svg"
 width="600.000000pt" height="600.000000pt" viewBox="0 0 600.000000 600.000000"
 preserveAspectRatio="xMidYMid meet">
<metadata>
Created by potrace 1.10, written by Peter Selinger 2001-2011
</metadata>
<g transform="translate(0.000000,600.000000) scale(0.100000,-0.100000)"
fill="#000000" stroke="none">
<path d="M2882 5168 c-9 -9 -12 -87 -12 -291 0 -265 1 -281 21 -313 39 -64
136 -68 189 -7 l30 34 0 282 c0 207 -3 286 -12 295 -8 8 -47 12 -108 12 -61 0
-100 -4 -108 -12z"/>
<path d="M1311 4711 c-39 -38 -71 -75 -71 -83 0 -7 132 -146 294 -307 l295
-294 46 5 c25 3 55 14 66 24 29 26 51 84 44 114 -6 24 -517 548 -577 591 l-27
20 -70 -70z"/>
<path d="M4323 4478 c-162 -161 -296 -303 -299 -315 -16 -61 56 -143 124 -143
33 0 55 20 324 287 158 158 290 295 294 305 4 12 -16 38 -67 88 -40 38 -75 70
-78 70 -3 0 -137 -132 -298 -292z"/>
<path d="M3101 4442 c-67 -62 -153 -63 -216 -2 -32 31 -34 32 -101 25 -38 -4
-94 -13 -124 -22 -118 -31 -166 -46 -197 -59 -117 -50 -178 -79 -218 -105 -16
-10 -37 -22 -46 -26 -8 -5 -43 -28 -77 -53 -56 -41 -61 -48 -62 -83 0 -49 -32
-119 -66 -146 -20 -16 -41 -21 -85 -21 l-58 0 -59 -77 c-32 -43 -62 -85 -65
-93 -4 -8 -16 -28 -27 -45 -37 -58 -107 -208 -120 -260 -5 -16 -13 -43 -19
-60 -18 -55 -40 -149 -48 -218 l-9 -67 38 -42 c35 -39 38 -47 38 -101 0 -54
-4 -64 -40 -110 -24 -30 -38 -57 -35 -66 3 -9 9 -48 15 -86 11 -82 27 -147 46
-193 8 -18 14 -40 14 -48 0 -9 6 -28 13 -42 8 -15 21 -43 30 -62 30 -69 59
-125 78 -155 10 -16 22 -37 26 -46 5 -8 30 -45 57 -82 l50 -67 54 0 c45 0 60
-5 93 -31 43 -34 65 -90 54 -139 -6 -26 -1 -33 54 -76 58 -45 79 -59 126 -84
11 -6 34 -19 50 -30 17 -11 37 -23 45 -26 8 -4 43 -19 78 -35 34 -16 66 -29
72 -29 5 0 24 -6 42 -14 71 -30 268 -76 327 -76 23 0 39 7 53 25 22 28 78 55
113 55 34 0 87 -25 114 -54 18 -19 34 -26 64 -26 66 0 305 63 402 105 101 45
127 59 203 108 24 15 45 27 48 27 3 0 32 21 65 46 58 45 59 46 59 96 0 93 64
158 157 158 45 0 52 3 78 36 54 67 92 130 149 244 21 41 44 88 52 103 8 16 14
35 14 42 0 8 6 29 14 47 36 86 81 296 72 333 -4 14 -15 29 -26 35 -25 13 -50
72 -50 116 0 39 13 66 55 112 l29 32 -17 93 c-37 193 -76 308 -157 461 -49 94
-77 138 -130 204 -35 46 -46 53 -66 48 -42 -11 -103 14 -140 58 -30 35 -34 47
-34 95 -1 62 9 51 -120 139 -72 48 -226 132 -266 145 -10 3 -39 13 -64 23 -78
29 -172 54 -242 64 -37 5 -78 12 -91 15 -19 5 -33 -2 -66 -33z m-6 -1180 c70
-22 153 -108 179 -184 35 -105 2 -239 -76 -311 -59 -55 -119 -77 -208 -77 -89
0 -149 22 -208 77 -78 72 -112 212 -76 315 29 79 112 160 189 182 33 10 65 20
70 22 15 5 74 -6 130 -24z"/>
<path d="M2950 3124 c-45 -20 -68 -41 -91 -86 -24 -46 -24 -59 0 -111 29 -63
68 -87 139 -87 56 0 62 2 101 41 39 40 41 44 41 103 -1 71 -20 101 -87 135
-50 25 -57 25 -103 5z"/>
<path d="M841 3086 c-8 -9 -11 -47 -9 -112 l3 -99 301 -3 c280 -2 302 -1 322
16 50 43 53 139 6 183 l-26 24 -292 3 c-245 2 -295 0 -305 -12z"/>
<path d="M4546 3085 c-63 -47 -73 -120 -25 -178 l31 -37 301 2 302 3 3 92 c4
145 31 133 -306 133 -235 -1 -290 -3 -306 -15z"/>
<path d="M1512 1677 c-160 -160 -292 -297 -292 -302 0 -16 134 -145 150 -145
8 0 147 132 308 293 272 272 292 295 292 327 0 66 -53 119 -120 120 l-45 0
-293 -293z"/>
<path d="M4106 1948 c-35 -13 -57 -34 -73 -71 -29 -63 -30 -61 281 -373 162
-161 300 -294 308 -294 17 0 148 131 148 148 0 16 -555 573 -587 590 -26 14
-38 14 -77 0z"/>
<path d="M2937 1472 c-57 -38 -56 -33 -57 -343 0 -234 3 -289 14 -298 9 -8 48
-11 112 -9 l99 3 3 302 2 303 -41 30 c-48 35 -91 38 -132 12z"/>
</g>
</svg>
