<?xml version="1.0" standalone="no"?>
<!DOCTYPE svg PUBLIC "-//W3C//DTD SVG 20010904//EN"
 "http://www.w3.org/TR/2001/REC-SVG-20010904/DTD/svg10.dtd">
<svg version="1.0" xmlns="http://www.w3.org/2000/svg"
 width="300.000000pt" height="157.000000pt" viewBox="0 0 300.000000 157.000000"
 preserveAspectRatio="xMidYMid meet">
<metadata>
Created by potrace 1.10, written by Peter Selinger 2001-2011
</metadata>
<g transform="translate(0.000000,157.000000) scale(0.100000,-0.100000)"
fill="#120458" stroke="none">
<path d="M830 1342 c-31 -15 -36 -24 -46 -75 -10 -49 -19 -65 -57 -102 -77
-73 -83 -95 -133 -426 -24 -165 -44 -321 -44 -345 0 -82 60 -162 138 -184 47
-13 67 -13 115 1 66 18 102 61 174 207 38 76 69 139 70 141 1 2 16 -13 33 -33
36 -41 112 -69 163 -59 50 9 106 44 128 80 l21 33 108 0 108 0 21 -33 c22 -36
78 -71 128 -80 51 -10 127 18 163 59 17 20 32 35 33 33 1 -2 32 -65 70 -141
72 -146 108 -189 174 -207 48 -14 68 -14 115 -1 78 22 138 102 138 184 0 24
-20 180 -44 345 -50 331 -56 353 -133 426 -38 37 -47 53 -56 102 -11 52 -16
60 -47 75 -23 12 -58 18 -100 18 -90 0 -132 -22 -142 -75 -4 -22 -10 -50 -13
-62 l-5 -23 -410 0 -410 0 -5 23 c-3 12 -9 40 -13 62 -10 53 -52 75 -142 75
-42 0 -77 -6 -100 -18z m171 -22 c34 -10 37 -13 48 -68 6 -32 17 -64 23 -70
17 -17 839 -17 856 0 6 6 17 38 23 70 11 55 14 58 48 68 46 13 96 13 143 0 32
-9 38 -15 43 -48 12 -65 17 -75 70 -132 29 -30 58 -65 64 -78 14 -27 101 -602
101 -669 0 -95 -69 -157 -173 -157 -85 1 -112 28 -202 199 -41 77 -80 141 -87
143 -9 2 -13 23 -13 76 0 68 -3 77 -31 113 -43 54 -87 75 -151 70 -92 -7 -163
-86 -163 -182 l0 -45 -102 0 -103 0 0 53 c0 97 -79 177 -175 177 -50 0 -84
-17 -130 -65 -32 -33 -35 -41 -38 -112 -3 -57 -9 -80 -23 -94 -10 -10 -48 -77
-83 -148 -37 -73 -77 -138 -92 -150 -80 -63 -203 -43 -254 41 -25 42 -25 90
-1 260 11 73 22 153 25 178 13 105 47 293 57 313 7 12 35 47 64 78 44 46 55
65 65 112 10 51 14 58 43 66 44 13 105 13 148 1z m297 -530 c97 -59 95 -200
-4 -258 -126 -74 -270 67 -202 197 40 76 135 104 206 61z m541 5 c41 -21 77
-68 85 -110 9 -44 -24 -118 -65 -148 -93 -67 -229 6 -229 122 0 111 114 185
209 136z"/>
<path d="M837 1192 c-11 -12 -17 -36 -17 -65 l0 -47 -43 0 c-23 0 -53 -7 -65
-16 -20 -14 -22 -24 -22 -103 0 -105 11 -121 83 -121 l47 0 0 -43 c0 -23 7
-53 16 -65 13 -20 24 -22 93 -22 94 0 111 12 111 83 l0 47 49 0 c69 0 88 25
90 118 1 56 -2 73 -19 95 -18 23 -29 27 -71 27 l-49 0 0 48 c0 69 -17 82 -112
82 -60 0 -78 -4 -91 -18z m179 -77 l1 -60 64 -5 64 -5 3 -74 c2 -42 -2 -79 -7
-84 -6 -6 -33 -10 -60 -8 -58 3 -66 -5 -62 -69 3 -62 -10 -72 -96 -68 l-68 3
-5 65 -5 65 -55 0 c-30 1 -61 4 -68 8 -17 11 -16 141 1 155 7 6 37 12 67 14
l55 3 3 50 c4 78 2 76 89 73 l78 -3 1 -60z"/>
<path d="M910 1145 c-11 -13 -8 -15 20 -15 28 0 31 2 20 15 -7 8 -16 15 -20
15 -4 0 -13 -7 -20 -15z"/>
<path d="M890 1067 c0 -31 5 -45 20 -55 34 -21 60 4 60 55 l0 43 -40 0 -40 0
0 -43z m37 -19 c-3 -8 -6 -5 -6 6 -1 11 2 17 5 13 3 -3 4 -12 1 -19z"/>
<path d="M790 970 c0 -39 1 -40 37 -40 20 0 44 7 54 16 17 15 17 18 2 40 -12
19 -24 24 -54 24 -39 0 -39 0 -39 -40z m57 -6 c-3 -3 -12 -4 -19 -1 -8 3 -5 6
6 6 11 1 17 -2 13 -5z"/>
<path d="M976 989 c-23 -34 -2 -59 51 -59 l43 0 0 40 c0 40 0 40 -39 40 -29 0
-44 -6 -55 -21z m51 -25 c-3 -3 -12 -4 -19 -1 -8 3 -5 6 6 6 11 1 17 -2 13 -5z"/>
<path d="M741 976 c-9 -10 -8 -16 4 -26 13 -11 15 -8 15 14 0 30 -3 32 -19 12z"/>
<path d="M1095 965 c0 -14 3 -25 6 -25 10 0 20 31 13 41 -10 17 -19 9 -19 -16z"/>
<path d="M902 918 c-7 -7 -12 -29 -12 -50 0 -38 0 -38 40 -38 40 0 40 0 40 40
0 29 -5 42 -19 50 -25 13 -34 13 -49 -2z m25 -50 c-3 -8 -6 -5 -6 6 -1 11 2
17 5 13 3 -3 4 -12 1 -19z"/>
<path d="M910 785 c10 -12 16 -13 29 -3 9 7 18 14 20 15 2 2 -10 3 -29 3 -28
0 -31 -2 -20 -15z"/>
<path d="M1971 1184 c-13 -17 -21 -41 -21 -65 l0 -39 -43 0 c-67 0 -87 -27
-87 -117 0 -93 21 -123 86 -123 l44 0 0 -39 c0 -24 8 -48 21 -65 19 -24 26
-26 99 -26 70 0 81 2 94 22 9 12 16 42 16 65 l0 43 48 0 c71 0 82 17 82 118 0
101 -15 122 -85 122 l-45 0 0 45 c0 69 -22 85 -114 85 -69 0 -76 -2 -95 -26z
m179 -69 l5 -60 55 -3 c30 -2 60 -8 67 -14 18 -14 18 -142 0 -156 -7 -6 -34
-10 -60 -8 -25 1 -51 0 -56 -3 -6 -4 -11 -33 -13 -66 l-3 -60 -68 -3 c-41 -2
-74 2 -82 8 -8 7 -15 36 -17 68 l-3 57 -52 0 c-29 0 -57 5 -63 11 -7 7 -10 41
-8 85 l3 74 63 3 62 3 0 58 c0 32 3 61 7 65 4 4 41 5 83 4 l75 -3 5 -60z"/>
<path d="M2040 1157 c-36 -18 -41 -78 -8 -101 30 -21 54 -20 78 4 51 51 -5
129 -70 97z m55 -52 c0 -14 -8 -21 -27 -23 -24 -3 -28 0 -28 23 0 23 4 26 28
23 19 -2 27 -9 27 -23z"/>
<path d="M1885 1005 c-14 -13 -25 -30 -25 -38 0 -25 41 -67 64 -67 26 0 66 38
66 64 0 21 -44 66 -65 66 -9 0 -27 -11 -40 -25z m67 -21 c9 -9 -3 -42 -17 -48
-20 -7 -49 19 -42 38 6 15 47 23 59 10z"/>
<path d="M2167 1002 c-36 -40 -9 -102 45 -102 51 0 78 69 40 103 -24 22 -65
21 -85 -1z m68 -42 c0 -18 -6 -26 -23 -28 -13 -2 -25 3 -28 12 -10 26 4 48 28
44 17 -2 23 -10 23 -28z"/>
<path d="M2021 861 c-12 -12 -21 -30 -21 -41 0 -59 90 -80 120 -27 13 24 13
30 0 55 -20 36 -70 42 -99 13z m67 -44 c3 -25 0 -28 -19 -25 -30 4 -49 35 -29
48 25 16 45 7 48 -23z"/>
<path d="M1163 774 c-109 -54 -81 -217 42 -240 69 -13 145 56 145 131 0 63
-63 125 -127 125 -15 0 -42 -8 -60 -16z m102 -28 c39 -17 55 -42 55 -89 0 -84
-112 -121 -172 -56 -45 47 -32 115 26 143 39 19 48 19 91 2z"/>
<path d="M1710 768 c-62 -42 -78 -113 -40 -176 43 -70 136 -78 197 -17 29 29
33 40 33 84 0 44 -5 56 -33 87 -44 48 -105 57 -157 22z m107 -23 c46 -19 53
-30 53 -80 0 -50 -21 -82 -63 -93 -71 -19 -127 21 -127 93 0 45 15 66 60 84
34 13 35 13 77 -4z"/>
<path d="M1583 1263 c15 -2 37 -2 50 0 12 2 0 4 -28 4 -27 0 -38 -2 -22 -4z"/>
</g>
</svg>
