<?xml version="1.0" standalone="no"?>
<!DOCTYPE svg PUBLIC "-//W3C//DTD SVG 20010904//EN"
 "http://www.w3.org/TR/2001/REC-SVG-20010904/DTD/svg10.dtd">
<svg version="1.0" xmlns="http://www.w3.org/2000/svg"
 width="100%" height="100%" viewBox="0 0 150.000000 153.000000"
 preserveAspectRatio="xMidYMid meet">
<metadata>
Created by potrace 1.10, written by Peter Selinger 2001-2011
</metadata>
<g transform="translate(0.000000,153.000000) scale(0.100000,-0.100000)"
fill="#ff124f" stroke="none">
<path d="M576 1465 c-11 -8 -32 -15 -47 -15 -28 0 -54 -11 -164 -71 -67 -36
-185 -137 -185 -158 0 -5 -7 -11 -15 -15 -8 -3 -15 -12 -15 -19 0 -8 -6 -19
-13 -25 -11 -9 -60 -103 -92 -177 -10 -24 -37 -196 -37 -240 0 -48 27 -216 38
-237 8 -14 14 -33 14 -40 0 -8 11 -35 25 -59 14 -24 28 -51 32 -59 31 -70 168
-204 257 -250 25 -14 46 -28 46 -32 0 -5 10 -8 23 -8 13 0 32 -7 43 -15 10 -8
35 -15 54 -15 19 0 48 -7 64 -15 32 -17 241 -22 250 -6 4 5 30 12 59 16 46 5
87 19 137 46 76 40 100 55 135 82 51 39 143 137 150 160 4 9 10 17 15 17 4 0
11 11 14 25 4 14 11 25 16 25 6 0 10 8 10 18 0 10 7 27 15 38 8 10 15 27 15
37 0 11 6 31 14 45 22 41 38 226 26 297 -5 33 -10 78 -10 100 0 22 -7 49 -15
59 -8 11 -15 25 -15 32 0 12 -33 86 -53 119 -48 78 -159 205 -179 205 -4 0
-13 6 -20 13 -18 16 -48 35 -75 46 -11 6 -24 15 -28 20 -3 6 -17 11 -29 11
-13 0 -29 7 -36 15 -7 8 -27 15 -44 15 -18 0 -41 7 -52 15 -28 21 -300 21
-328 0z m356 -407 c29 -6 60 -17 69 -25 8 -7 20 -13 25 -13 13 0 84 -83 84
-100 0 -8 7 -24 15 -34 22 -29 21 -268 0 -286 -8 -7 -15 -21 -15 -32 0 -28
-66 -94 -120 -120 -43 -21 -59 -22 -330 -25 -157 -1 -293 0 -302 3 -16 5 -18
24 -18 223 0 197 2 220 20 256 25 48 80 115 95 115 6 0 17 6 23 13 7 6 36 17
65 23 70 16 322 17 389 2z"/>
<path d="M575 980 c-11 -5 -30 -9 -43 -9 -25 -1 -82 -39 -82 -55 0 -5 -6 -17
-14 -25 -12 -13 -15 -56 -17 -201 l-2 -185 264 0 c247 0 266 1 294 20 39 26
55 41 55 53 0 5 7 15 15 22 12 10 15 38 15 134 0 173 -22 212 -135 242 -62 16
-316 19 -350 4z m65 -226 c24 -43 -18 -87 -64 -66 -20 9 -26 19 -26 45 0 42 5
47 45 47 24 0 35 -6 45 -26z m138 -12 c2 -18 -2 -40 -9 -48 -18 -21 -55 -17
-72 9 -13 20 -13 26 0 51 12 22 20 27 46 24 28 -3 32 -7 35 -36z m150 0 c6
-57 -39 -82 -80 -45 -22 20 -23 32 -2 61 12 17 24 22 47 20 28 -3 32 -7 35
-36z"/>
</g>
</svg>
