<?xml version="1.0" standalone="no"?>
<!DOCTYPE svg PUBLIC "-//W3C//DTD SVG 20010904//EN"
 "http://www.w3.org/TR/2001/REC-SVG-20010904/DTD/svg10.dtd">
<svg version="1.0" xmlns="http://www.w3.org/2000/svg"
 width="300.000000pt" height="157.000000pt" viewBox="0 0 300.000000 157.000000"
 preserveAspectRatio="xMidYMid meet">
<metadata>
Created by potrace 1.10, written by Peter Selinger 2001-2011
</metadata>
<g transform="translate(0.000000,157.000000) scale(0.100000,-0.100000)"
fill="#ff124f" stroke="none">
<path d="M830 1342 c-31 -15 -36 -23 -47 -75 -9 -49 -18 -65 -56 -102 -77 -73
-83 -95 -133 -426 -50 -337 -52 -374 -24 -428 59 -116 207 -145 305 -60 22 19
59 78 101 162 37 73 68 134 70 136 3 3 19 -10 38 -28 39 -37 113 -63 159 -54
50 9 106 44 128 80 l21 33 108 0 108 0 21 -33 c22 -36 78 -71 128 -80 46 -9
120 17 159 54 19 18 35 31 38 28 2 -2 33 -63 70 -136 72 -141 109 -184 173
-202 48 -14 68 -14 115 -1 78 22 138 102 138 185 0 25 -20 180 -44 344 -50
331 -56 353 -133 426 -38 37 -47 53 -56 102 -11 52 -16 60 -47 75 -23 12 -58
18 -100 18 -90 0 -132 -22 -142 -75 -4 -22 -10 -50 -13 -62 l-5 -23 -410 0
-410 0 -5 23 c-3 12 -9 40 -13 62 -10 53 -52 75 -142 75 -42 0 -77 -6 -100
-18z m178 -174 c7 -7 12 -36 12 -65 l0 -53 53 0 c75 0 78 -5 75 -91 l-3 -74
-60 -5 -60 -5 -3 -57 c-2 -32 -9 -61 -17 -68 -8 -6 -41 -10 -82 -8 l-68 3 -3
57 c-2 31 -8 61 -15 67 -7 5 -37 11 -67 13 l-55 3 -3 68 c-2 41 2 74 8 82 7 8
36 15 68 17 l57 3 3 50 c1 28 5 56 7 63 6 16 136 17 153 0z m1142 -53 l5 -60
57 -3 c32 -2 61 -9 68 -17 6 -8 10 -41 8 -82 l-3 -68 -57 -3 c-31 -2 -61 -8
-67 -15 -5 -7 -11 -37 -13 -67 l-3 -55 -68 -3 c-41 -2 -74 2 -82 8 -8 7 -15
36 -17 68 l-3 57 -60 5 -60 5 -3 74 c-3 86 0 91 76 91 l52 0 0 53 c0 29 6 59
12 65 9 9 37 12 83 10 l70 -3 5 -60z m-861 -323 c109 -55 106 -209 -4 -262
-130 -63 -261 72 -193 199 40 75 123 101 197 63z m550 3 c53 -27 81 -71 81
-126 0 -120 -98 -187 -204 -140 -57 25 -86 69 -86 131 0 110 115 184 209 135z"/>
<path d="M915 1150 c-3 -5 3 -10 15 -10 12 0 18 5 15 10 -3 6 -10 10 -15 10
-5 0 -12 -4 -15 -10z"/>
<path d="M890 1067 c0 -31 5 -45 20 -55 34 -21 60 4 60 55 l0 43 -40 0 -40 0
0 -43z"/>
<path d="M790 970 c0 -40 0 -40 39 -40 49 0 69 20 53 55 -10 21 -19 25 -52 25
l-40 0 0 -40z"/>
<path d="M976 989 c-23 -34 -2 -59 51 -59 l43 0 0 40 c0 40 0 40 -39 40 -29 0
-44 -6 -55 -21z"/>
<path d="M744 979 c-3 -6 -1 -16 5 -22 8 -8 11 -5 11 11 0 24 -5 28 -16 11z"/>
<path d="M1100 970 c0 -19 3 -21 12 -12 9 9 9 15 0 24 -9 9 -12 7 -12 -12z"/>
<path d="M908 919 c-12 -7 -18 -22 -18 -49 0 -40 0 -40 40 -40 40 0 40 0 40
40 0 29 -5 42 -19 50 -23 12 -22 12 -43 -1z"/>
<path d="M918 788 c9 -9 15 -9 24 0 9 9 7 12 -12 12 -19 0 -21 -3 -12 -12z"/>
<path d="M2032 1154 c-46 -32 -17 -114 40 -114 26 0 58 36 58 65 0 29 -32 65
-58 65 -10 0 -28 -7 -40 -16z"/>
<path d="M1885 1005 c-14 -13 -25 -30 -25 -38 0 -25 41 -67 65 -67 24 0 65 42
65 67 0 19 -45 63 -65 63 -9 0 -27 -11 -40 -25z"/>
<path d="M2167 1002 c-36 -40 -9 -102 45 -102 51 0 78 69 40 103 -24 22 -65
21 -85 -1z"/>
<path d="M2021 861 c-25 -25 -27 -49 -5 -79 23 -34 83 -27 104 11 13 24 13 30
0 55 -20 36 -70 42 -99 13z"/>
<path d="M1154 771 c-71 -43 -80 -137 -20 -197 107 -107 275 24 196 153 -37
61 -116 81 -176 44z"/>
<path d="M1724 781 c-40 -18 -74 -69 -74 -114 0 -121 132 -177 217 -92 29 29
33 40 33 84 0 44 -5 56 -33 87 -26 29 -42 37 -77 40 -25 2 -54 0 -66 -5z"/>
</g>
</svg>
