<?xml version="1.0" standalone="no"?>
<!DOCTYPE svg PUBLIC "-//W3C//DTD SVG 20010904//EN"
 "http://www.w3.org/TR/2001/REC-SVG-20010904/DTD/svg10.dtd">
<svg version="1.0" xmlns="http://www.w3.org/2000/svg"
 width="300.000000pt" height="300.000000pt" viewBox="0 0 300.000000 300.000000"
 preserveAspectRatio="xMidYMid meet">
<metadata>
Created by potrace 1.10, written by Peter Selinger 2001-2011
</metadata>
<g transform="translate(0.000000,300.000000) scale(0.050000,-0.050000)"
fill="#120458" stroke="none">
<path d="M2760 5978 c-575 -35 -1164 -262 -1596 -614 l-108 -88 -211 207
c-117 114 -243 241 -281 282 -93 102 -104 96 -104 -57 0 -73 -13 -332 -29
-575 -55 -840 -75 -1235 -63 -1247 6 -7 203 3 437 21 234 18 677 52 985 75
308 23 562 44 564 46 2 2 -65 65 -150 140 -85 76 -211 192 -281 259 l-128 121
56 44 c560 447 1487 491 2144 103 1689 -999 1034 -3581 -925 -3648 -1073 -37
-2027 832 -2030 1848 l0 105 -519 0 -518 0 10 -115 c50 -593 153 -961 381
-1355 1201 -2085 4220 -2005 5292 140 340 681 398 1568 150 2300 -370 1097
-1444 1944 -2536 2002 -104 5 -217 12 -250 15 -33 3 -163 -1 -290 -9z m292
-95 c-21 -33 226 -126 514 -193 1146 -265 1869 -970 2146 -2089 60 -246 114
-413 158 -499 54 -102 63 -134 42 -151 -55 -46 -133 -254 -194 -520 -262
-1141 -951 -1824 -2178 -2161 -149 -40 -332 -106 -407 -145 -134 -70 -138 -71
-190 -37 -95 62 -188 97 -513 193 -991 292 -1549 728 -1936 1509 -122 247
-294 801 -294 949 0 14 108 21 310 21 l309 0 12 -55 c454 -2040 2775 -2617
3932 -978 1296 1836 -706 4227 -2712 3240 -386 -189 -499 -382 -352 -600 43
-64 72 -123 65 -130 -19 -19 -328 -52 -714 -77 -176 -11 -351 -25 -388 -30
l-68 -9 15 415 c18 498 36 756 55 775 8 7 65 -32 128 -88 227 -202 254 -202
557 -3 392 259 664 374 1130 480 143 32 307 83 365 112 87 44 143 67 212 86 4
1 2 -6 -4 -15z"/>
</g>
</svg>
