<?xml version="1.0" standalone="no"?>
<!DOCTYPE svg PUBLIC "-//W3C//DTD SVG 20010904//EN"
 "http://www.w3.org/TR/2001/REC-SVG-20010904/DTD/svg10.dtd">
<svg version="1.0" xmlns="http://www.w3.org/2000/svg"
 width="300.000000pt" height="226.000000pt" viewBox="0 0 300.000000 226.000000"
 preserveAspectRatio="xMidYMid meet">
<metadata>
Created by potrace 1.10, written by Peter Selinger 2001-2011
</metadata>
<g transform="translate(0.000000,226.000000) scale(0.050000,-0.050000)"
fill="#ff00a0" stroke="none">
<path d="M866 4241 c-527 -13 -524 -12 -549 -226 -8 -69 -21 -818 -29 -1665
l-14 -1540 49 -58 c46 -53 64 -58 258 -77 247 -23 219 -6 233 -142 18 -173 -5
-167 657 -191 1109 -42 3511 -15 3652 40 55 22 77 81 77 208 0 81 21 90 210
90 344 0 318 -151 305 1771 -11 1755 -7 1704 -128 1750 -123 47 -3337 74
-4721 40z m3953 -83 c401 -10 731 -22 734 -25 3 -3 -1146 -5 -2553 -4 -1407 1
-2551 8 -2542 17 45 45 2827 54 4361 12z m-64 -1224 c3 -656 -2 -1052 -13
-1045 -11 6 -25 3 -32 -9 -7 -11 2 -20 19 -20 26 0 31 -36 31 -241 0 -137 -8
-237 -18 -230 -10 6 -23 -2 -29 -17 -6 -16 2 -34 18 -40 31 -12 43 -300 14
-345 -8 -12 -59 -21 -115 -20 l-100 3 -4 210 c-3 144 2 196 14 165 25 -61 30
-57 30 22 0 46 -8 65 -25 58 -14 -5 -25 1 -25 13 0 12 14 22 30 22 27 0 27 6
3 45 -30 48 -52 2428 -23 2475 8 13 58 19 117 16 l103 -6 5 -1056z m-1625 936
c591 -30 877 -109 958 -267 118 -227 118 -2004 0 -2253 -15 -33 -57 -80 -93
-104 -353 -240 -2904 -216 -3160 29 -251 240 -214 2258 45 2448 169 123 1275
196 2250 147z m2086 -163 c27 -7 42 -23 36 -39 -5 -14 8 -32 29 -38 21 -7 39
-26 39 -42 0 -23 -9 -25 -39 -9 -67 36 -156 25 -190 -24 -30 -42 -29 -46 14
-58 42 -12 42 -13 -9 -15 -32 -1 -62 12 -74 33 -23 42 -32 22 -50 -106 -20
-147 89 -222 236 -161 80 33 97 63 27 45 -25 -6 -59 -3 -75 8 -22 13 -11 18
43 19 39 0 83 13 97 30 13 16 32 25 41 20 8 -6 20 1 26 15 5 14 11 7 13 -15 3
-40 3 -40 20 0 16 37 17 37 19 3 6 -162 -253 -271 -413 -174 -277 169 -102
592 210 508z m54 -148 c9 -13 -4 -16 -36 -8 -28 7 -56 3 -63 -9 -9 -14 14 -23
63 -24 42 -2 59 -7 39 -12 -72 -19 -179 13 -152 45 28 33 130 39 149 8z m-141
-160 c-14 -24 64 -44 114 -28 28 9 38 6 28 -9 -24 -39 -126 -25 -160 22 -39
57 -40 88 -1 56 16 -13 25 -32 19 -41z m165 -458 c297 -181 117 -642 -212
-544 -122 37 -249 201 -177 230 15 6 11 10 -10 11 -38 2 -49 71 -15 92 12 7
16 20 10 30 -21 34 14 81 52 69 21 -6 38 -2 38 10 0 11 -10 21 -22 21 -41 0
-6 46 63 83 88 48 193 47 273 -2z m-1114 -1891 c22 -26 6 -30 -123 -31 -81 0
-273 -13 -427 -29 -365 -37 -1311 -56 -1730 -34 -294 15 -253 17 380 16 702
-1 1310 28 1630 78 221 34 242 34 270 0z"/>
<path d="M4612 3837 c-36 -42 -36 -45 -1 -70 20 -15 28 -27 17 -27 -11 0 -31
11 -44 24 -13 13 -30 16 -39 8 -19 -20 73 -96 103 -85 12 4 19 19 16 32 -3 14
14 29 37 35 31 8 40 24 35 64 -8 68 -73 78 -124 19z m108 -29 c0 -16 -18 -28
-40 -28 -26 0 -40 13 -40 38 0 28 10 36 40 28 22 -6 40 -23 40 -38z"/>
<path d="M4548 1850 c1 -25 15 -39 37 -37 19 1 35 -5 35 -15 0 -10 10 -18 21
-18 12 0 15 10 8 22 -8 12 -2 30 13 40 21 13 16 17 -17 18 -25 0 -45 -9 -45
-20 0 -34 -37 -22 -46 15 -6 27 -7 25 -6 -5z"/>
<path d="M4580 1520 c0 -25 81 -25 120 0 22 14 11 19 -45 20 -41 0 -75 -9 -75
-20z"/>
<path d="M4597 1148 c43 -30 43 -33 10 -58 -38 -27 -10 -90 40 -90 13 0 10 9
-7 20 -24 16 -21 19 15 20 49 0 59 38 21 76 -19 19 -14 24 21 24 25 0 40 9 33
20 -7 11 -50 20 -96 20 -82 0 -82 0 -37 -32z"/>
<path d="M5297 3325 c-23 -28 -22 -31 8 -19 19 7 35 4 35 -6 0 -21 -121 -91
-145 -84 -8 2 -15 -5 -15 -16 0 -46 114 1 162 67 43 57 -1 113 -45 58z"/>
<path d="M5240 2715 c-102 -208 -101 -203 -49 -210 24 -3 28 0 11 8 -25 11 73
70 126 75 10 1 22 16 27 32 7 27 6 27 -14 0 -22 -30 -17 18 13 128 7 23 2 32
-12 23 -13 -8 -17 -1 -10 18 7 17 20 31 30 31 10 0 18 10 18 22 0 12 -13 17
-29 11 -19 -7 -25 -1 -18 18 32 82 -13 7 -93 -156z m39 -106 c-57 -68 -80 -30
-35 56 45 84 45 84 52 29 4 -31 -4 -69 -17 -85z"/>
<path d="M5089 2791 c-70 -70 -21 -266 54 -219 11 7 2 25 -22 41 -96 68 1 253
101 190 31 -19 38 -18 38 7 0 50 -115 37 -171 -19z"/>
<path d="M5001 2683 c-1 -52 -8 -65 -32 -55 -28 10 -28 7 0 -33 39 -55 39 -77
1 -62 -16 6 -30 2 -30 -9 0 -26 77 -45 91 -22 6 10 37 4 69 -12 60 -31 105
-40 70 -15 -53 40 -116 129 -141 198 l-27 77 -1 -67z"/>
</g>
</svg>
